<?xml version="1.0" encoding="us-ascii" standalone="no"?><svg xmlns="http://www.w3.org/2000/svg" xmlns:xlink="http://www.w3.org/1999/xlink" contentStyleType="text/css" height="559.2px" preserveAspectRatio="none" style="width:811px;height:559px;background:#FFFFFF;" version="1.1" viewBox="0 0 811 559" width="811.2px" zoomAndPan="magnify"><defs/><g><text fill="#000000" font-family="sans-serif" font-size="8.4" font-weight="bold" lengthAdjust="spacing" textLength="236.4" x="283.2" y="15.0645">Diagrama de Clases para el Sistema de Gesti&#243;n de ASUR</text><!--class Usuario--><g id="elem_Usuario"><rect codeLine="2" fill="#F1F1F1" height="241.0805" id="Usuario" rx="1.5" ry="1.5" style="stroke:#181818;stroke-width:0.3;" width="149.4" x="340.2" y="27.9727"/><ellipse cx="397.95" cy="37.5727" fill="#ADD1B2" rx="6.6" ry="6.6" style="stroke:#181818;stroke-width:0.6;"/><path d="M399.6094,35.0977 Q399.7031,34.9664 399.8156,34.9008 Q399.9281,34.8352 400.0594,34.8352 Q400.2844,34.8352 400.425,34.9945 Q400.5656,35.1445 400.5656,35.5102 L400.5656,36.382 Q400.5656,36.7477 400.425,36.907 Q400.2844,37.0664 400.0594,37.0664 Q399.8531,37.0664 399.7313,36.9445 Q399.6094,36.832 399.5438,36.5227 Q399.5156,36.307 399.4031,36.1945 Q399.2063,35.9695 398.8406,35.8383 Q398.475,35.707 398.1,35.707 Q397.6406,35.707 397.2562,35.9039 Q396.8812,36.1008 396.5813,36.5508 Q396.2906,37.0008 396.2906,37.6195 L396.2906,38.2758 Q396.2906,39.0164 396.825,39.5133 Q397.3594,40.0008 398.3156,40.0008 Q398.8781,40.0008 399.2719,39.8508 Q399.5062,39.757 399.7594,39.4945 Q399.9188,39.3352 400.0031,39.2883 Q400.0969,39.2414 400.2188,39.2414 Q400.4156,39.2414 400.5656,39.4008 Q400.725,39.5508 400.725,39.757 Q400.725,39.9633 400.5188,40.207 Q400.2188,40.5539 399.7406,40.7508 Q399.0938,41.0227 398.3156,41.0227 Q397.4063,41.0227 396.6844,40.6477 Q396.0938,40.3477 395.6813,39.7102 Q395.2688,39.0633 395.2688,38.2945 L395.2688,37.6008 Q395.2688,36.8039 395.6344,36.1195 Q396.0094,35.4258 396.6656,35.0602 Q397.3219,34.6852 398.0625,34.6852 Q398.5031,34.6852 398.8875,34.7883 Q399.2813,34.882 399.6094,35.0977 Z " fill="#000000"/><text fill="#000000" font-family="sans-serif" font-size="8.4" lengthAdjust="spacing" textLength="28.8" x="410.25" y="41.0508">Usuario</text><line style="stroke:#181818;stroke-width:0.3;" x1="340.8" x2="489" y1="47.1727" y2="47.1727"/><rect fill="none" height="3.6" style="stroke:#C82930;stroke-width:0.6;" width="3.6" x="345" y="54.259"/><text fill="#000000" font-family="sans-serif" font-size="8.4" lengthAdjust="spacing" textLength="60" x="352.2" y="58.6371">nombres: String</text><rect fill="none" height="3.6" style="stroke:#C82930;stroke-width:0.6;" width="3.6" x="345" y="65.4316"/><text fill="#000000" font-family="sans-serif" font-size="8.4" lengthAdjust="spacing" textLength="60.6" x="352.2" y="69.8098">apellidos: String</text><rect fill="none" height="3.6" style="stroke:#C82930;stroke-width:0.6;" width="3.6" x="345" y="76.6043"/><text fill="#000000" font-family="sans-serif" font-size="8.4" lengthAdjust="spacing" textLength="84" x="352.2" y="80.9824">tipoDocumento: String</text><rect fill="none" height="3.6" style="stroke:#C82930;stroke-width:0.6;" width="3.6" x="345" y="87.777"/><text fill="#000000" font-family="sans-serif" font-size="8.4" lengthAdjust="spacing" textLength="99" x="352.2" y="92.1551">numeroDocumento: String</text><rect fill="none" height="3.6" style="stroke:#C82930;stroke-width:0.6;" width="3.6" x="345" y="98.9496"/><text fill="#000000" font-family="sans-serif" font-size="8.4" lengthAdjust="spacing" textLength="85.2" x="352.2" y="103.3277">fechaNacimiento: Date</text><rect fill="none" height="3.6" style="stroke:#C82930;stroke-width:0.6;" width="3.6" x="345" y="110.1223"/><text fill="#000000" font-family="sans-serif" font-size="8.4" lengthAdjust="spacing" textLength="59.4" x="352.2" y="114.5004">domicilio: String</text><rect fill="none" height="3.6" style="stroke:#C82930;stroke-width:0.6;" width="3.6" x="345" y="121.2949"/><text fill="#000000" font-family="sans-serif" font-size="8.4" lengthAdjust="spacing" textLength="84.6" x="352.2" y="125.673">telefonos: List&lt;String&gt;</text><rect fill="none" height="3.6" style="stroke:#C82930;stroke-width:0.6;" width="3.6" x="345" y="132.4676"/><text fill="#000000" font-family="sans-serif" font-size="8.4" lengthAdjust="spacing" textLength="46.8" x="352.2" y="136.8457">email: String</text><rect fill="none" height="3.6" style="stroke:#C82930;stroke-width:0.6;" width="3.6" x="345" y="143.6402"/><text fill="#000000" font-family="sans-serif" font-size="8.4" lengthAdjust="spacing" textLength="69.6" x="352.2" y="148.0184">contrase&#241;a: String</text><rect fill="none" height="3.6" style="stroke:#C82930;stroke-width:0.6;" width="3.6" x="345" y="154.8129"/><text fill="#000000" font-family="sans-serif" font-size="8.4" lengthAdjust="spacing" textLength="93" x="352.2" y="159.191">tipoUsuario: TipoUsuario</text><rect fill="none" height="3.6" style="stroke:#C82930;stroke-width:0.6;" width="3.6" x="345" y="165.9855"/><text fill="#000000" font-family="sans-serif" font-size="8.4" lengthAdjust="spacing" textLength="119.4" x="352.2" y="170.3637">categoriaSocio: CategoriaSocio</text><rect fill="none" height="3.6" style="stroke:#C82930;stroke-width:0.6;" width="3.6" x="345" y="177.1582"/><text fill="#000000" font-family="sans-serif" font-size="8.4" lengthAdjust="spacing" textLength="99.6" x="352.2" y="181.5363">dificultadAuditiva: Boolean</text><rect fill="none" height="3.6" style="stroke:#C82930;stroke-width:0.6;" width="3.6" x="345" y="188.3309"/><text fill="#000000" font-family="sans-serif" font-size="8.4" lengthAdjust="spacing" textLength="133.8" x="352.2" y="192.709">manejaLenguajeDeSe&#241;as: Boolean</text><rect fill="none" height="3.6" style="stroke:#C82930;stroke-width:0.6;" width="3.6" x="345" y="199.5035"/><text fill="#000000" font-family="sans-serif" font-size="8.4" lengthAdjust="spacing" textLength="99.6" x="352.2" y="203.8816">subcomision: Subcomision</text><line style="stroke:#181818;stroke-width:0.3;" x1="340.8" x2="489" y1="208.3898" y2="208.3898"/><ellipse cx="346.8" cy="217.2762" fill="#84BE84" rx="1.8" ry="1.8" style="stroke:#038048;stroke-width:0.6;"/><text fill="#000000" font-family="sans-serif" font-size="8.4" lengthAdjust="spacing" textLength="37.8" x="352.2" y="219.8543">registrar()</text><ellipse cx="346.8" cy="228.4488" fill="#84BE84" rx="1.8" ry="1.8" style="stroke:#038048;stroke-width:0.6;"/><text fill="#000000" font-family="sans-serif" font-size="8.4" lengthAdjust="spacing" textLength="40.2" x="352.2" y="231.027">modificar()</text><ellipse cx="346.8" cy="239.6215" fill="#84BE84" rx="1.8" ry="1.8" style="stroke:#038048;stroke-width:0.6;"/><text fill="#000000" font-family="sans-serif" font-size="8.4" lengthAdjust="spacing" textLength="35.4" x="352.2" y="242.1996">eliminar()</text><ellipse cx="346.8" cy="250.7941" fill="#84BE84" rx="1.8" ry="1.8" style="stroke:#038048;stroke-width:0.6;"/><text fill="#000000" font-family="sans-serif" font-size="8.4" lengthAdjust="spacing" textLength="24" x="352.2" y="253.3723">login()</text><ellipse cx="346.8" cy="261.9668" fill="#84BE84" rx="1.8" ry="1.8" style="stroke:#038048;stroke-width:0.6;"/><text fill="#000000" font-family="sans-serif" font-size="8.4" lengthAdjust="spacing" textLength="91.2" x="352.2" y="264.5449">modificarDatosPropios()</text></g><!--class TipoUsuario--><g id="elem_TipoUsuario"><rect codeLine="23" fill="#F1F1F1" height="62.318" id="TipoUsuario" rx="1.5" ry="1.5" style="stroke:#181818;stroke-width:0.3;" width="87" x="4.2" y="117.3727"/><ellipse cx="23.19" cy="126.9727" fill="#EB937F" rx="6.6" ry="6.6" style="stroke:#181818;stroke-width:0.6;"/><path d="M22.5056,127.4508 L22.5056,128.9508 L25.1025,128.9508 L25.1025,128.3977 Q25.1025,128.032 25.2431,127.8727 Q25.3931,127.7133 25.6181,127.7133 Q25.8431,127.7133 25.9837,127.8727 Q26.1244,128.032 26.1244,128.3977 L26.1244,129.9727 L21.3244,129.9727 Q20.9494,129.9727 20.79,129.832 Q20.64,129.6914 20.64,129.457 Q20.64,129.232 20.7994,129.0914 Q20.9588,128.9508 21.3244,128.9508 L21.4837,128.9508 L21.4837,124.957 L21.3244,124.957 Q20.9494,124.957 20.79,124.8164 Q20.64,124.6758 20.64,124.4414 Q20.64,124.2164 20.79,124.0758 Q20.9494,123.9352 21.3244,123.9352 L25.8994,123.9352 L25.8994,125.4914 Q25.8994,125.857 25.7588,126.0164 Q25.6275,126.1664 25.3931,126.1664 Q25.1681,126.1664 25.0275,126.0164 Q24.8869,125.857 24.8869,125.4914 L24.8869,124.957 L22.5056,124.957 L22.5056,126.4289 L23.3963,126.4289 Q23.3963,126.0352 23.4712,125.9227 Q23.6306,125.6789 23.9119,125.6789 Q24.1369,125.6789 24.2775,125.8383 Q24.4181,125.9883 24.4181,126.3539 L24.4181,127.5352 Q24.4181,127.8633 24.3431,127.9758 Q24.1838,128.2102 23.9119,128.2102 Q23.6306,128.2102 23.4712,127.9664 Q23.3963,127.8539 23.3963,127.4508 L22.5056,127.4508 Z " fill="#000000"/><text fill="#000000" font-family="sans-serif" font-size="8.4" lengthAdjust="spacing" textLength="45.6" x="33.81" y="130.4508">TipoUsuario</text><line style="stroke:#181818;stroke-width:0.3;" x1="4.8" x2="90.6" y1="136.5727" y2="136.5727"/><text fill="#000000" font-family="sans-serif" font-size="8.4" lengthAdjust="spacing" textLength="21" x="7.8" y="148.0371">Socio</text><text fill="#000000" font-family="sans-serif" font-size="8.4" lengthAdjust="spacing" textLength="31.2" x="7.8" y="159.2098">NoSocio</text><text fill="#000000" font-family="sans-serif" font-size="8.4" lengthAdjust="spacing" textLength="79.8" x="7.8" y="170.3824">AuxiliarAdministrativo</text><line style="stroke:#181818;stroke-width:0.3;" x1="4.8" x2="90.6" y1="174.8906" y2="174.8906"/></g><!--class CategoriaSocio--><g id="elem_CategoriaSocio"><rect codeLine="28" fill="#F1F1F1" height="51.1453" id="CategoriaSocio" rx="1.5" ry="1.5" style="stroke:#181818;stroke-width:0.3;" width="85.8" x="112.2" y="123.0727"/><ellipse cx="124.98" cy="132.6727" fill="#ADD1B2" rx="6.6" ry="6.6" style="stroke:#181818;stroke-width:0.6;"/><path d="M126.6394,130.1977 Q126.7331,130.0664 126.8456,130.0008 Q126.9581,129.9352 127.0894,129.9352 Q127.3144,129.9352 127.455,130.0945 Q127.5956,130.2445 127.5956,130.6102 L127.5956,131.482 Q127.5956,131.8477 127.455,132.007 Q127.3144,132.1664 127.0894,132.1664 Q126.8831,132.1664 126.7613,132.0445 Q126.6394,131.932 126.5738,131.6227 Q126.5456,131.407 126.4331,131.2945 Q126.2363,131.0695 125.8706,130.9383 Q125.505,130.807 125.13,130.807 Q124.6706,130.807 124.2863,131.0039 Q123.9113,131.2008 123.6113,131.6508 Q123.3206,132.1008 123.3206,132.7195 L123.3206,133.3758 Q123.3206,134.1164 123.855,134.6133 Q124.3894,135.1008 125.3456,135.1008 Q125.9081,135.1008 126.3019,134.9508 Q126.5363,134.857 126.7894,134.5945 Q126.9488,134.4352 127.0331,134.3883 Q127.1269,134.3414 127.2488,134.3414 Q127.4456,134.3414 127.5956,134.5008 Q127.755,134.6508 127.755,134.857 Q127.755,135.0633 127.5488,135.307 Q127.2488,135.6539 126.7706,135.8508 Q126.1238,136.1227 125.3456,136.1227 Q124.4363,136.1227 123.7144,135.7477 Q123.1238,135.4477 122.7113,134.8102 Q122.2988,134.1633 122.2988,133.3945 L122.2988,132.7008 Q122.2988,131.9039 122.6644,131.2195 Q123.0394,130.5258 123.6956,130.1602 Q124.3519,129.7852 125.0925,129.7852 Q125.5331,129.7852 125.9175,129.8883 Q126.3113,129.982 126.6394,130.1977 Z " fill="#000000"/><text fill="#000000" font-family="sans-serif" font-size="8.4" lengthAdjust="spacing" textLength="58.2" x="134.22" y="136.1508">CategoriaSocio</text><line style="stroke:#181818;stroke-width:0.3;" x1="112.8" x2="197.4" y1="142.2727" y2="142.2727"/><rect fill="none" height="3.6" style="stroke:#C82930;stroke-width:0.6;" width="3.6" x="117" y="149.359"/><text fill="#000000" font-family="sans-serif" font-size="8.4" lengthAdjust="spacing" textLength="55.8" x="124.2" y="153.7371">nombre: String</text><rect fill="none" height="3.6" style="stroke:#C82930;stroke-width:0.6;" width="3.6" x="117" y="160.5316"/><text fill="#000000" font-family="sans-serif" font-size="8.4" lengthAdjust="spacing" textLength="70.2" x="124.2" y="164.9098">descripcion: String</text><line style="stroke:#181818;stroke-width:0.3;" x1="112.8" x2="197.4" y1="169.418" y2="169.418"/></g><!--class Subcomision--><g id="elem_Subcomision"><rect codeLine="32" fill="#F1F1F1" height="51.1453" id="Subcomision" rx="1.5" ry="1.5" style="stroke:#181818;stroke-width:0.3;" width="85.8" x="4.8" y="344.4727"/><ellipse cx="22.17" cy="354.0727" fill="#ADD1B2" rx="6.6" ry="6.6" style="stroke:#181818;stroke-width:0.6;"/><path d="M23.8294,351.5977 Q23.9231,351.4664 24.0356,351.4008 Q24.1481,351.3352 24.2794,351.3352 Q24.5044,351.3352 24.645,351.4945 Q24.7856,351.6445 24.7856,352.0102 L24.7856,352.882 Q24.7856,353.2477 24.645,353.407 Q24.5044,353.5664 24.2794,353.5664 Q24.0731,353.5664 23.9513,353.4445 Q23.8294,353.332 23.7638,353.0227 Q23.7356,352.807 23.6231,352.6945 Q23.4263,352.4695 23.0606,352.3383 Q22.695,352.207 22.32,352.207 Q21.8606,352.207 21.4763,352.4039 Q21.1013,352.6008 20.8013,353.0508 Q20.5106,353.5008 20.5106,354.1195 L20.5106,354.7758 Q20.5106,355.5164 21.045,356.0133 Q21.5794,356.5008 22.5356,356.5008 Q23.0981,356.5008 23.4919,356.3508 Q23.7263,356.257 23.9794,355.9945 Q24.1388,355.8352 24.2231,355.7883 Q24.3169,355.7414 24.4388,355.7414 Q24.6356,355.7414 24.7856,355.9008 Q24.945,356.0508 24.945,356.257 Q24.945,356.4633 24.7388,356.707 Q24.4388,357.0539 23.9606,357.2508 Q23.3138,357.5227 22.5356,357.5227 Q21.6263,357.5227 20.9044,357.1477 Q20.3138,356.8477 19.9013,356.2102 Q19.4888,355.5633 19.4888,354.7945 L19.4888,354.1008 Q19.4888,353.3039 19.8544,352.6195 Q20.2294,351.9258 20.8856,351.5602 Q21.5419,351.1852 22.2825,351.1852 Q22.7231,351.1852 23.1075,351.2883 Q23.5013,351.382 23.8294,351.5977 Z " fill="#000000"/><text fill="#000000" font-family="sans-serif" font-size="8.4" lengthAdjust="spacing" textLength="48" x="32.43" y="357.5508">Subcomision</text><line style="stroke:#181818;stroke-width:0.3;" x1="5.4" x2="90" y1="363.6727" y2="363.6727"/><rect fill="none" height="3.6" style="stroke:#C82930;stroke-width:0.6;" width="3.6" x="9.6" y="370.759"/><text fill="#000000" font-family="sans-serif" font-size="8.4" lengthAdjust="spacing" textLength="55.8" x="16.8" y="375.1371">nombre: String</text><rect fill="none" height="3.6" style="stroke:#C82930;stroke-width:0.6;" width="3.6" x="9.6" y="381.9316"/><text fill="#000000" font-family="sans-serif" font-size="8.4" lengthAdjust="spacing" textLength="70.2" x="16.8" y="386.3098">descripcion: String</text><line style="stroke:#181818;stroke-width:0.3;" x1="5.4" x2="90" y1="390.818" y2="390.818"/></g><!--class Perfil--><g id="elem_Perfil"><rect codeLine="36" fill="#F1F1F1" height="95.8359" id="Perfil" rx="1.5" ry="1.5" style="stroke:#181818;stroke-width:0.3;" width="85.8" x="218.4" y="321.9727"/><ellipse cx="249.15" cy="331.5727" fill="#ADD1B2" rx="6.6" ry="6.6" style="stroke:#181818;stroke-width:0.6;"/><path d="M250.8094,329.0977 Q250.9031,328.9664 251.0156,328.9008 Q251.1281,328.8352 251.2594,328.8352 Q251.4844,328.8352 251.625,328.9945 Q251.7656,329.1445 251.7656,329.5102 L251.7656,330.382 Q251.7656,330.7477 251.625,330.907 Q251.4844,331.0664 251.2594,331.0664 Q251.0531,331.0664 250.9312,330.9445 Q250.8094,330.832 250.7437,330.5227 Q250.7156,330.307 250.6031,330.1945 Q250.4063,329.9695 250.0406,329.8383 Q249.675,329.707 249.3,329.707 Q248.8406,329.707 248.4562,329.9039 Q248.0812,330.1008 247.7813,330.5508 Q247.4906,331.0008 247.4906,331.6195 L247.4906,332.2758 Q247.4906,333.0164 248.025,333.5133 Q248.5594,334.0008 249.5156,334.0008 Q250.0781,334.0008 250.4719,333.8508 Q250.7062,333.757 250.9594,333.4945 Q251.1187,333.3352 251.2031,333.2883 Q251.2969,333.2414 251.4188,333.2414 Q251.6156,333.2414 251.7656,333.4008 Q251.925,333.5508 251.925,333.757 Q251.925,333.9633 251.7188,334.207 Q251.4188,334.5539 250.9406,334.7508 Q250.2938,335.0227 249.5156,335.0227 Q248.6063,335.0227 247.8844,334.6477 Q247.2938,334.3477 246.8813,333.7102 Q246.4688,333.0633 246.4688,332.2945 L246.4688,331.6008 Q246.4688,330.8039 246.8344,330.1195 Q247.2094,329.4258 247.8656,329.0602 Q248.5219,328.6852 249.2625,328.6852 Q249.7031,328.6852 250.0875,328.7883 Q250.4813,328.882 250.8094,329.0977 Z " fill="#000000"/><text fill="#000000" font-family="sans-serif" font-size="8.4" lengthAdjust="spacing" textLength="19.2" x="261.45" y="335.0508">Perfil</text><line style="stroke:#181818;stroke-width:0.3;" x1="219" x2="303.6" y1="341.1727" y2="341.1727"/><rect fill="none" height="3.6" style="stroke:#C82930;stroke-width:0.6;" width="3.6" x="223.2" y="348.259"/><text fill="#000000" font-family="sans-serif" font-size="8.4" lengthAdjust="spacing" textLength="55.8" x="230.4" y="352.6371">nombre: String</text><rect fill="none" height="3.6" style="stroke:#C82930;stroke-width:0.6;" width="3.6" x="223.2" y="359.4316"/><text fill="#000000" font-family="sans-serif" font-size="8.4" lengthAdjust="spacing" textLength="70.2" x="230.4" y="363.8098">descripcion: String</text><rect fill="none" height="3.6" style="stroke:#C82930;stroke-width:0.6;" width="3.6" x="223.2" y="370.6043"/><text fill="#000000" font-family="sans-serif" font-size="8.4" lengthAdjust="spacing" textLength="52.8" x="230.4" y="374.9824">estado: String</text><line style="stroke:#181818;stroke-width:0.3;" x1="219" x2="303.6" y1="379.4906" y2="379.4906"/><ellipse cx="225" cy="388.377" fill="#84BE84" rx="1.8" ry="1.8" style="stroke:#038048;stroke-width:0.6;"/><text fill="#000000" font-family="sans-serif" font-size="8.4" lengthAdjust="spacing" textLength="37.2" x="230.4" y="390.9551">ingresar()</text><ellipse cx="225" cy="399.5496" fill="#84BE84" rx="1.8" ry="1.8" style="stroke:#038048;stroke-width:0.6;"/><text fill="#000000" font-family="sans-serif" font-size="8.4" lengthAdjust="spacing" textLength="40.2" x="230.4" y="402.1277">modificar()</text><ellipse cx="225" cy="410.7223" fill="#84BE84" rx="1.8" ry="1.8" style="stroke:#038048;stroke-width:0.6;"/><text fill="#000000" font-family="sans-serif" font-size="8.4" lengthAdjust="spacing" textLength="35.4" x="230.4" y="413.3004">eliminar()</text></g><!--class Funcionalidad--><g id="elem_Funcionalidad"><rect codeLine="44" fill="#F1F1F1" height="84.6633" id="Funcionalidad" rx="1.5" ry="1.5" style="stroke:#181818;stroke-width:0.3;" width="85.8" x="255.6" y="470.7727"/><ellipse cx="270.54" cy="480.3727" fill="#ADD1B2" rx="6.6" ry="6.6" style="stroke:#181818;stroke-width:0.6;"/><path d="M272.1994,477.8977 Q272.2931,477.7664 272.4056,477.7008 Q272.5181,477.6352 272.6494,477.6352 Q272.8744,477.6352 273.015,477.7945 Q273.1556,477.9445 273.1556,478.3102 L273.1556,479.182 Q273.1556,479.5477 273.015,479.707 Q272.8744,479.8664 272.6494,479.8664 Q272.4431,479.8664 272.3212,479.7445 Q272.1994,479.632 272.1337,479.3227 Q272.1056,479.107 271.9931,478.9945 Q271.7963,478.7695 271.4306,478.6383 Q271.065,478.507 270.69,478.507 Q270.2306,478.507 269.8463,478.7039 Q269.4713,478.9008 269.1713,479.3508 Q268.8806,479.8008 268.8806,480.4195 L268.8806,481.0758 Q268.8806,481.8164 269.415,482.3133 Q269.9494,482.8008 270.9056,482.8008 Q271.4681,482.8008 271.8619,482.6508 Q272.0963,482.557 272.3494,482.2945 Q272.5087,482.1352 272.5931,482.0883 Q272.6869,482.0414 272.8088,482.0414 Q273.0056,482.0414 273.1556,482.2008 Q273.315,482.3508 273.315,482.557 Q273.315,482.7633 273.1088,483.007 Q272.8088,483.3539 272.3306,483.5508 Q271.6838,483.8227 270.9056,483.8227 Q269.9963,483.8227 269.2744,483.4477 Q268.6838,483.1477 268.2712,482.5102 Q267.8588,481.8633 267.8588,481.0945 L267.8588,480.4008 Q267.8588,479.6039 268.2244,478.9195 Q268.5994,478.2258 269.2556,477.8602 Q269.9119,477.4852 270.6525,477.4852 Q271.0931,477.4852 271.4775,477.5883 Q271.8713,477.682 272.1994,477.8977 Z " fill="#000000"/><text fill="#000000" font-family="sans-serif" font-size="8.4" lengthAdjust="spacing" textLength="53.4" x="280.26" y="483.8508">Funcionalidad</text><line style="stroke:#181818;stroke-width:0.3;" x1="256.2" x2="340.8" y1="489.9727" y2="489.9727"/><rect fill="none" height="3.6" style="stroke:#C82930;stroke-width:0.6;" width="3.6" x="260.4" y="497.059"/><text fill="#000000" font-family="sans-serif" font-size="8.4" lengthAdjust="spacing" textLength="55.8" x="267.6" y="501.4371">nombre: String</text><rect fill="none" height="3.6" style="stroke:#C82930;stroke-width:0.6;" width="3.6" x="260.4" y="508.2316"/><text fill="#000000" font-family="sans-serif" font-size="8.4" lengthAdjust="spacing" textLength="70.2" x="267.6" y="512.6098">descripcion: String</text><line style="stroke:#181818;stroke-width:0.3;" x1="256.2" x2="340.8" y1="517.118" y2="517.118"/><ellipse cx="262.2" cy="526.0043" fill="#84BE84" rx="1.8" ry="1.8" style="stroke:#038048;stroke-width:0.6;"/><text fill="#000000" font-family="sans-serif" font-size="8.4" lengthAdjust="spacing" textLength="19.8" x="267.6" y="528.5824">alta()</text><ellipse cx="262.2" cy="537.177" fill="#84BE84" rx="1.8" ry="1.8" style="stroke:#038048;stroke-width:0.6;"/><text fill="#000000" font-family="sans-serif" font-size="8.4" lengthAdjust="spacing" textLength="40.2" x="267.6" y="539.7551">modificar()</text><ellipse cx="262.2" cy="548.3496" fill="#84BE84" rx="1.8" ry="1.8" style="stroke:#038048;stroke-width:0.6;"/><text fill="#000000" font-family="sans-serif" font-size="8.4" lengthAdjust="spacing" textLength="35.4" x="267.6" y="550.9277">eliminar()</text></g><!--class Auditoria--><g id="elem_Auditoria"><rect codeLine="51" fill="#F1F1F1" height="95.8359" id="Auditoria" rx="1.5" ry="1.5" style="stroke:#181818;stroke-width:0.3;" width="93" x="368.4" y="321.9727"/><ellipse cx="395.55" cy="331.5727" fill="#ADD1B2" rx="6.6" ry="6.6" style="stroke:#181818;stroke-width:0.6;"/><path d="M397.2094,329.0977 Q397.3031,328.9664 397.4156,328.9008 Q397.5281,328.8352 397.6594,328.8352 Q397.8844,328.8352 398.025,328.9945 Q398.1656,329.1445 398.1656,329.5102 L398.1656,330.382 Q398.1656,330.7477 398.025,330.907 Q397.8844,331.0664 397.6594,331.0664 Q397.4531,331.0664 397.3313,330.9445 Q397.2094,330.832 397.1438,330.5227 Q397.1156,330.307 397.0031,330.1945 Q396.8063,329.9695 396.4406,329.8383 Q396.075,329.707 395.7,329.707 Q395.2406,329.707 394.8563,329.9039 Q394.4813,330.1008 394.1813,330.5508 Q393.8906,331.0008 393.8906,331.6195 L393.8906,332.2758 Q393.8906,333.0164 394.425,333.5133 Q394.9594,334.0008 395.9156,334.0008 Q396.4781,334.0008 396.8719,333.8508 Q397.1063,333.757 397.3594,333.4945 Q397.5188,333.3352 397.6031,333.2883 Q397.6969,333.2414 397.8187,333.2414 Q398.0156,333.2414 398.1656,333.4008 Q398.325,333.5508 398.325,333.757 Q398.325,333.9633 398.1188,334.207 Q397.8187,334.5539 397.3406,334.7508 Q396.6937,335.0227 395.9156,335.0227 Q395.0062,335.0227 394.2844,334.6477 Q393.6937,334.3477 393.2813,333.7102 Q392.8688,333.0633 392.8688,332.2945 L392.8688,331.6008 Q392.8688,330.8039 393.2344,330.1195 Q393.6094,329.4258 394.2656,329.0602 Q394.9219,328.6852 395.6625,328.6852 Q396.1031,328.6852 396.4875,328.7883 Q396.8812,328.882 397.2094,329.0977 Z " fill="#000000"/><text fill="#000000" font-family="sans-serif" font-size="8.4" lengthAdjust="spacing" textLength="33.6" x="407.85" y="335.0508">Auditoria</text><line style="stroke:#181818;stroke-width:0.3;" x1="369" x2="460.8" y1="341.1727" y2="341.1727"/><rect fill="none" height="3.6" style="stroke:#C82930;stroke-width:0.6;" width="3.6" x="373.2" y="348.259"/><text fill="#000000" font-family="sans-serif" font-size="8.4" lengthAdjust="spacing" textLength="61.8" x="380.4" y="352.6371">fechaHora: Date</text><rect fill="none" height="3.6" style="stroke:#C82930;stroke-width:0.6;" width="3.6" x="373.2" y="359.4316"/><text fill="#000000" font-family="sans-serif" font-size="8.4" lengthAdjust="spacing" textLength="57" x="380.4" y="363.8098">terminal: String</text><rect fill="none" height="3.6" style="stroke:#C82930;stroke-width:0.6;" width="3.6" x="373.2" y="370.6043"/><text fill="#000000" font-family="sans-serif" font-size="8.4" lengthAdjust="spacing" textLength="61.8" x="380.4" y="374.9824">usuario: Usuario</text><rect fill="none" height="3.6" style="stroke:#C82930;stroke-width:0.6;" width="3.6" x="373.2" y="381.777"/><text fill="#000000" font-family="sans-serif" font-size="8.4" lengthAdjust="spacing" textLength="64.8" x="380.4" y="386.1551">operacion: String</text><line style="stroke:#181818;stroke-width:0.3;" x1="369" x2="460.8" y1="390.6633" y2="390.6633"/><ellipse cx="375" cy="399.5496" fill="#84BE84" rx="1.8" ry="1.8" style="stroke:#038048;stroke-width:0.6;"/><text fill="#000000" font-family="sans-serif" font-size="8.4" lengthAdjust="spacing" textLength="77.4" x="380.4" y="402.1277">registrarOperacion()</text><ellipse cx="375" cy="410.7223" fill="#84BE84" rx="1.8" ry="1.8" style="stroke:#038048;stroke-width:0.6;"/><text fill="#000000" font-family="sans-serif" font-size="8.4" lengthAdjust="spacing" textLength="66.6" x="380.4" y="413.3004">generarReporte()</text></g><!--class Actividad--><g id="elem_Actividad"><rect codeLine="59" fill="#F1F1F1" height="129.3539" id="Actividad" rx="1.5" ry="1.5" style="stroke:#181818;stroke-width:0.3;" width="119.4" x="482.4" y="305.1727"/><ellipse cx="522.45" cy="314.7727" fill="#ADD1B2" rx="6.6" ry="6.6" style="stroke:#181818;stroke-width:0.6;"/><path d="M524.1094,312.2977 Q524.2031,312.1664 524.3156,312.1008 Q524.4281,312.0352 524.5594,312.0352 Q524.7844,312.0352 524.925,312.1945 Q525.0656,312.3445 525.0656,312.7102 L525.0656,313.582 Q525.0656,313.9477 524.925,314.107 Q524.7844,314.2664 524.5594,314.2664 Q524.3531,314.2664 524.2312,314.1445 Q524.1094,314.032 524.0437,313.7227 Q524.0156,313.507 523.9031,313.3945 Q523.7063,313.1695 523.3406,313.0383 Q522.975,312.907 522.6,312.907 Q522.1406,312.907 521.7563,313.1039 Q521.3813,313.3008 521.0813,313.7508 Q520.7906,314.2008 520.7906,314.8195 L520.7906,315.4758 Q520.7906,316.2164 521.325,316.7133 Q521.8594,317.2008 522.8156,317.2008 Q523.3781,317.2008 523.7719,317.0508 Q524.0063,316.957 524.2594,316.6945 Q524.4187,316.5352 524.5031,316.4883 Q524.5969,316.4414 524.7188,316.4414 Q524.9156,316.4414 525.0656,316.6008 Q525.225,316.7508 525.225,316.957 Q525.225,317.1633 525.0188,317.407 Q524.7188,317.7539 524.2406,317.9508 Q523.5938,318.2227 522.8156,318.2227 Q521.9063,318.2227 521.1844,317.8477 Q520.5938,317.5477 520.1813,316.9102 Q519.7688,316.2633 519.7688,315.4945 L519.7688,314.8008 Q519.7688,314.0039 520.1344,313.3195 Q520.5094,312.6258 521.1656,312.2602 Q521.8219,311.8852 522.5625,311.8852 Q523.0031,311.8852 523.3875,311.9883 Q523.7813,312.082 524.1094,312.2977 Z " fill="#000000"/><text fill="#000000" font-family="sans-serif" font-size="8.4" lengthAdjust="spacing" textLength="34.2" x="534.75" y="318.2508">Actividad</text><line style="stroke:#181818;stroke-width:0.3;" x1="483" x2="601.2" y1="324.3727" y2="324.3727"/><rect fill="none" height="3.6" style="stroke:#C82930;stroke-width:0.6;" width="3.6" x="487.2" y="331.459"/><text fill="#000000" font-family="sans-serif" font-size="8.4" lengthAdjust="spacing" textLength="55.8" x="494.4" y="335.8371">nombre: String</text><rect fill="none" height="3.6" style="stroke:#C82930;stroke-width:0.6;" width="3.6" x="487.2" y="342.6316"/><text fill="#000000" font-family="sans-serif" font-size="8.4" lengthAdjust="spacing" textLength="70.2" x="494.4" y="347.0098">descripcion: String</text><rect fill="none" height="3.6" style="stroke:#C82930;stroke-width:0.6;" width="3.6" x="487.2" y="353.8043"/><text fill="#000000" font-family="sans-serif" font-size="8.4" lengthAdjust="spacing" textLength="43.8" x="494.4" y="358.1824">fecha: Date</text><rect fill="none" height="3.6" style="stroke:#C82930;stroke-width:0.6;" width="3.6" x="487.2" y="364.977"/><text fill="#000000" font-family="sans-serif" font-size="8.4" lengthAdjust="spacing" textLength="103.8" x="494.4" y="369.3551">tipoActividad: TipoActividad</text><line style="stroke:#181818;stroke-width:0.3;" x1="483" x2="601.2" y1="373.8633" y2="373.8633"/><ellipse cx="489" cy="382.7496" fill="#84BE84" rx="1.8" ry="1.8" style="stroke:#038048;stroke-width:0.6;"/><text fill="#000000" font-family="sans-serif" font-size="8.4" lengthAdjust="spacing" textLength="37.2" x="494.4" y="385.3277">ingresar()</text><ellipse cx="489" cy="393.9223" fill="#84BE84" rx="1.8" ry="1.8" style="stroke:#038048;stroke-width:0.6;"/><text fill="#000000" font-family="sans-serif" font-size="8.4" lengthAdjust="spacing" textLength="40.2" x="494.4" y="396.5004">modificar()</text><ellipse cx="489" cy="405.0949" fill="#84BE84" rx="1.8" ry="1.8" style="stroke:#038048;stroke-width:0.6;"/><text fill="#000000" font-family="sans-serif" font-size="8.4" lengthAdjust="spacing" textLength="35.4" x="494.4" y="407.673">eliminar()</text><ellipse cx="489" cy="416.2676" fill="#84BE84" rx="1.8" ry="1.8" style="stroke:#038048;stroke-width:0.6;"/><text fill="#000000" font-family="sans-serif" font-size="8.4" lengthAdjust="spacing" textLength="44.4" x="494.4" y="418.8457">inscribirse()</text><ellipse cx="489" cy="427.4402" fill="#84BE84" rx="1.8" ry="1.8" style="stroke:#038048;stroke-width:0.6;"/><text fill="#000000" font-family="sans-serif" font-size="8.4" lengthAdjust="spacing" textLength="78.6" x="494.4" y="430.0184">cancelarInscripcion()</text></g><!--class TipoActividad--><g id="elem_TipoActividad"><rect codeLine="70" fill="#F1F1F1" height="84.6633" id="TipoActividad" rx="1.5" ry="1.5" style="stroke:#181818;stroke-width:0.3;" width="85.8" x="111.6" y="327.6727"/><ellipse cx="127.62" cy="337.2727" fill="#ADD1B2" rx="6.6" ry="6.6" style="stroke:#181818;stroke-width:0.6;"/><path d="M129.2794,334.7977 Q129.3731,334.6664 129.4856,334.6008 Q129.5981,334.5352 129.7294,334.5352 Q129.9544,334.5352 130.095,334.6945 Q130.2356,334.8445 130.2356,335.2102 L130.2356,336.082 Q130.2356,336.4477 130.095,336.607 Q129.9544,336.7664 129.7294,336.7664 Q129.5231,336.7664 129.4012,336.6445 Q129.2794,336.532 129.2137,336.2227 Q129.1856,336.007 129.0731,335.8945 Q128.8763,335.6695 128.5106,335.5383 Q128.145,335.407 127.77,335.407 Q127.3106,335.407 126.9262,335.6039 Q126.5512,335.8008 126.2512,336.2508 Q125.9606,336.7008 125.9606,337.3195 L125.9606,337.9758 Q125.9606,338.7164 126.495,339.2133 Q127.0294,339.7008 127.9856,339.7008 Q128.5481,339.7008 128.9419,339.5508 Q129.1762,339.457 129.4294,339.1945 Q129.5887,339.0352 129.6731,338.9883 Q129.7669,338.9414 129.8888,338.9414 Q130.0856,338.9414 130.2356,339.1008 Q130.395,339.2508 130.395,339.457 Q130.395,339.6633 130.1888,339.907 Q129.8888,340.2539 129.4106,340.4508 Q128.7638,340.7227 127.9856,340.7227 Q127.0762,340.7227 126.3544,340.3477 Q125.7637,340.0477 125.3513,339.4102 Q124.9387,338.7633 124.9387,337.9945 L124.9387,337.3008 Q124.9387,336.5039 125.3044,335.8195 Q125.6794,335.1258 126.3356,334.7602 Q126.9919,334.3852 127.7325,334.3852 Q128.1731,334.3852 128.5575,334.4883 Q128.9513,334.582 129.2794,334.7977 Z " fill="#000000"/><text fill="#000000" font-family="sans-serif" font-size="8.4" lengthAdjust="spacing" textLength="51" x="137.58" y="340.7508">TipoActividad</text><line style="stroke:#181818;stroke-width:0.3;" x1="112.2" x2="196.8" y1="346.8727" y2="346.8727"/><rect fill="none" height="3.6" style="stroke:#C82930;stroke-width:0.6;" width="3.6" x="116.4" y="353.959"/><text fill="#000000" font-family="sans-serif" font-size="8.4" lengthAdjust="spacing" textLength="55.8" x="123.6" y="358.3371">nombre: String</text><rect fill="none" height="3.6" style="stroke:#C82930;stroke-width:0.6;" width="3.6" x="116.4" y="365.1316"/><text fill="#000000" font-family="sans-serif" font-size="8.4" lengthAdjust="spacing" textLength="70.2" x="123.6" y="369.5098">descripcion: String</text><line style="stroke:#181818;stroke-width:0.3;" x1="112.2" x2="196.8" y1="374.018" y2="374.018"/><ellipse cx="118.2" cy="382.9043" fill="#84BE84" rx="1.8" ry="1.8" style="stroke:#038048;stroke-width:0.6;"/><text fill="#000000" font-family="sans-serif" font-size="8.4" lengthAdjust="spacing" textLength="37.2" x="123.6" y="385.4824">ingresar()</text><ellipse cx="118.2" cy="394.077" fill="#84BE84" rx="1.8" ry="1.8" style="stroke:#038048;stroke-width:0.6;"/><text fill="#000000" font-family="sans-serif" font-size="8.4" lengthAdjust="spacing" textLength="40.2" x="123.6" y="396.6551">modificar()</text><ellipse cx="118.2" cy="405.2496" fill="#84BE84" rx="1.8" ry="1.8" style="stroke:#038048;stroke-width:0.6;"/><text fill="#000000" font-family="sans-serif" font-size="8.4" lengthAdjust="spacing" textLength="35.4" x="123.6" y="407.8277">eliminar()</text></g><!--class Espacio--><g id="elem_Espacio"><rect codeLine="77" fill="#F1F1F1" height="107.0086" id="Espacio" rx="1.5" ry="1.5" style="stroke:#181818;stroke-width:0.3;" width="85.8" x="622.8" y="316.5727"/><ellipse cx="648.27" cy="326.1727" fill="#ADD1B2" rx="6.6" ry="6.6" style="stroke:#181818;stroke-width:0.6;"/><path d="M649.9294,323.6977 Q650.0231,323.5664 650.1356,323.5008 Q650.2481,323.4352 650.3794,323.4352 Q650.6044,323.4352 650.745,323.5945 Q650.8856,323.7445 650.8856,324.1102 L650.8856,324.982 Q650.8856,325.3477 650.745,325.507 Q650.6044,325.6664 650.3794,325.6664 Q650.1731,325.6664 650.0513,325.5445 Q649.9294,325.432 649.8638,325.1227 Q649.8356,324.907 649.7231,324.7945 Q649.5263,324.5695 649.1606,324.4383 Q648.795,324.307 648.42,324.307 Q647.9606,324.307 647.5763,324.5039 Q647.2013,324.7008 646.9013,325.1508 Q646.6106,325.6008 646.6106,326.2195 L646.6106,326.8758 Q646.6106,327.6164 647.145,328.1133 Q647.6794,328.6008 648.6356,328.6008 Q649.1981,328.6008 649.5919,328.4508 Q649.8263,328.357 650.0794,328.0945 Q650.2388,327.9352 650.3231,327.8883 Q650.4169,327.8414 650.5388,327.8414 Q650.7356,327.8414 650.8856,328.0008 Q651.045,328.1508 651.045,328.357 Q651.045,328.5633 650.8388,328.807 Q650.5388,329.1539 650.0606,329.3508 Q649.4138,329.6227 648.6356,329.6227 Q647.7263,329.6227 647.0044,329.2477 Q646.4138,328.9477 646.0013,328.3102 Q645.5888,327.6633 645.5888,326.8945 L645.5888,326.2008 Q645.5888,325.4039 645.9544,324.7195 Q646.3294,324.0258 646.9856,323.6602 Q647.6419,323.2852 648.3825,323.2852 Q648.8231,323.2852 649.2075,323.3883 Q649.6013,323.482 649.9294,323.6977 Z " fill="#000000"/><text fill="#000000" font-family="sans-serif" font-size="8.4" lengthAdjust="spacing" textLength="30" x="660.33" y="329.6508">Espacio</text><line style="stroke:#181818;stroke-width:0.3;" x1="623.4" x2="708" y1="335.7727" y2="335.7727"/><rect fill="none" height="3.6" style="stroke:#C82930;stroke-width:0.6;" width="3.6" x="627.6" y="342.859"/><text fill="#000000" font-family="sans-serif" font-size="8.4" lengthAdjust="spacing" textLength="55.8" x="634.8" y="347.2371">nombre: String</text><rect fill="none" height="3.6" style="stroke:#C82930;stroke-width:0.6;" width="3.6" x="627.6" y="354.0316"/><text fill="#000000" font-family="sans-serif" font-size="8.4" lengthAdjust="spacing" textLength="63" x="634.8" y="358.4098">ubicacion: String</text><line style="stroke:#181818;stroke-width:0.3;" x1="623.4" x2="708" y1="362.918" y2="362.918"/><ellipse cx="629.4" cy="371.8043" fill="#84BE84" rx="1.8" ry="1.8" style="stroke:#038048;stroke-width:0.6;"/><text fill="#000000" font-family="sans-serif" font-size="8.4" lengthAdjust="spacing" textLength="37.2" x="634.8" y="374.3824">ingresar()</text><ellipse cx="629.4" cy="382.977" fill="#84BE84" rx="1.8" ry="1.8" style="stroke:#038048;stroke-width:0.6;"/><text fill="#000000" font-family="sans-serif" font-size="8.4" lengthAdjust="spacing" textLength="40.2" x="634.8" y="385.5551">modificar()</text><ellipse cx="629.4" cy="394.1496" fill="#84BE84" rx="1.8" ry="1.8" style="stroke:#038048;stroke-width:0.6;"/><text fill="#000000" font-family="sans-serif" font-size="8.4" lengthAdjust="spacing" textLength="35.4" x="634.8" y="396.7277">eliminar()</text><ellipse cx="629.4" cy="405.3223" fill="#84BE84" rx="1.8" ry="1.8" style="stroke:#038048;stroke-width:0.6;"/><text fill="#000000" font-family="sans-serif" font-size="8.4" lengthAdjust="spacing" textLength="37.8" x="634.8" y="407.9004">reservar()</text><ellipse cx="629.4" cy="416.4949" fill="#84BE84" rx="1.8" ry="1.8" style="stroke:#038048;stroke-width:0.6;"/><text fill="#000000" font-family="sans-serif" font-size="8.4" lengthAdjust="spacing" textLength="70.2" x="634.8" y="419.073">cancelarReserva()</text></g><!--class Pago--><g id="elem_Pago"><rect codeLine="86" fill="#F1F1F1" height="84.6633" id="Pago" rx="1.5" ry="1.5" style="stroke:#181818;stroke-width:0.3;" width="77.4" x="729.6" y="327.6727"/><ellipse cx="755.88" cy="337.2727" fill="#ADD1B2" rx="6.6" ry="6.6" style="stroke:#181818;stroke-width:0.6;"/><path d="M757.5394,334.7977 Q757.6331,334.6664 757.7456,334.6008 Q757.8581,334.5352 757.9894,334.5352 Q758.2144,334.5352 758.355,334.6945 Q758.4956,334.8445 758.4956,335.2102 L758.4956,336.082 Q758.4956,336.4477 758.355,336.607 Q758.2144,336.7664 757.9894,336.7664 Q757.7831,336.7664 757.6613,336.6445 Q757.5394,336.532 757.4738,336.2227 Q757.4456,336.007 757.3331,335.8945 Q757.1362,335.6695 756.7706,335.5383 Q756.405,335.407 756.03,335.407 Q755.5706,335.407 755.1863,335.6039 Q754.8113,335.8008 754.5112,336.2508 Q754.2206,336.7008 754.2206,337.3195 L754.2206,337.9758 Q754.2206,338.7164 754.755,339.2133 Q755.2894,339.7008 756.2456,339.7008 Q756.8081,339.7008 757.2019,339.5508 Q757.4363,339.457 757.6894,339.1945 Q757.8488,339.0352 757.9331,338.9883 Q758.0269,338.9414 758.1488,338.9414 Q758.3456,338.9414 758.4956,339.1008 Q758.655,339.2508 758.655,339.457 Q758.655,339.6633 758.4487,339.907 Q758.1488,340.2539 757.6706,340.4508 Q757.0238,340.7227 756.2456,340.7227 Q755.3363,340.7227 754.6144,340.3477 Q754.0238,340.0477 753.6112,339.4102 Q753.1987,338.7633 753.1987,337.9945 L753.1987,337.3008 Q753.1987,336.5039 753.5644,335.8195 Q753.9394,335.1258 754.5956,334.7602 Q755.2519,334.3852 755.9925,334.3852 Q756.4331,334.3852 756.8175,334.4883 Q757.2113,334.582 757.5394,334.7977 Z " fill="#000000"/><text fill="#000000" font-family="sans-serif" font-size="8.4" lengthAdjust="spacing" textLength="19.8" x="768.12" y="340.7508">Pago</text><line style="stroke:#181818;stroke-width:0.3;" x1="730.2" x2="806.4" y1="346.8727" y2="346.8727"/><rect fill="none" height="3.6" style="stroke:#C82930;stroke-width:0.6;" width="3.6" x="734.4" y="353.959"/><text fill="#000000" font-family="sans-serif" font-size="8.4" lengthAdjust="spacing" textLength="43.8" x="741.6" y="358.3371">fecha: Date</text><rect fill="none" height="3.6" style="stroke:#C82930;stroke-width:0.6;" width="3.6" x="734.4" y="365.1316"/><text fill="#000000" font-family="sans-serif" font-size="8.4" lengthAdjust="spacing" textLength="47.4" x="741.6" y="369.5098">monto: Float</text><rect fill="none" height="3.6" style="stroke:#C82930;stroke-width:0.6;" width="3.6" x="734.4" y="376.3043"/><text fill="#000000" font-family="sans-serif" font-size="8.4" lengthAdjust="spacing" textLength="61.8" x="741.6" y="380.6824">usuario: Usuario</text><line style="stroke:#181818;stroke-width:0.3;" x1="730.2" x2="806.4" y1="385.1906" y2="385.1906"/><ellipse cx="736.2" cy="394.077" fill="#84BE84" rx="1.8" ry="1.8" style="stroke:#038048;stroke-width:0.6;"/><text fill="#000000" font-family="sans-serif" font-size="8.4" lengthAdjust="spacing" textLength="37.2" x="741.6" y="396.6551">ingresar()</text><ellipse cx="736.2" cy="405.2496" fill="#84BE84" rx="1.8" ry="1.8" style="stroke:#038048;stroke-width:0.6;"/><text fill="#000000" font-family="sans-serif" font-size="8.4" lengthAdjust="spacing" textLength="40.2" x="741.6" y="407.8277">modificar()</text></g><!--link Usuario to Perfil--><g id="link_Usuario_Perfil"><path codeLine="93" d="M340.158,245.4367 C321.462,271.9387 302.61,299.5267 287.976,321.9247 " fill="none" id="Usuario-Perfil" style="stroke:#181818;stroke-width:0.6;"/><text fill="#000000" font-family="sans-serif" font-size="7.8" lengthAdjust="spacing" textLength="4.2" x="331.2754" y="249.2545">1</text><text fill="#000000" font-family="sans-serif" font-size="7.8" lengthAdjust="spacing" textLength="12" x="277.8821" y="315.2577">0..*</text></g><!--link Perfil to Usuario--><g id="link_Perfil_Usuario"><path codeLine="100" d="M301.224,321.8887 C313.188,305.8087 326.688,287.0707 340.11,267.9727 " fill="none" id="Perfil-Usuario" style="stroke:#181818;stroke-width:0.6;"/><text fill="#000000" font-family="sans-serif" font-size="7.8" lengthAdjust="spacing" textLength="12" x="292.3514" y="315.2184">0..*</text><text fill="#000000" font-family="sans-serif" font-size="7.8" lengthAdjust="spacing" textLength="12" x="323.4393" y="272.8061">0..*</text></g><!--link Usuario to Funcionalidad--><g id="link_Usuario_Funcionalidad"><path codeLine="94" d="M370.08,269.1727 C365.844,281.2927 361.716,293.4487 357.9,305.1727 C339.39,362.0407 320.85,428.6587 309.528,470.7127 " fill="none" id="Usuario-Funcionalidad" style="stroke:#181818;stroke-width:0.6;"/><text fill="#000000" font-family="sans-serif" font-size="7.8" lengthAdjust="spacing" textLength="4.2" x="364.1938" y="282.1123">1</text><text fill="#000000" font-family="sans-serif" font-size="7.8" lengthAdjust="spacing" textLength="12" x="298.0465" y="464.0411">0..*</text></g><!--link Usuario to Auditoria--><g id="link_Usuario_Auditoria"><path codeLine="95" d="M414.9,269.2627 C414.9,287.8807 414.9,306.1147 414.9,321.8107 " fill="none" id="Usuario-Auditoria" style="stroke:#181818;stroke-width:0.6;"/><text fill="#000000" font-family="sans-serif" font-size="7.8" lengthAdjust="spacing" textLength="4.2" x="410.6245" y="282.2055">1</text><text fill="#000000" font-family="sans-serif" font-size="7.8" lengthAdjust="spacing" textLength="12" x="402.3469" y="315.1332">0..*</text></g><!--link Usuario to Actividad--><g id="link_Usuario_Actividad"><path codeLine="96" d="M484.272,269.2627 C491.364,281.5387 498.36,293.6467 504.9,304.9747 " fill="none" id="Usuario-Actividad" style="stroke:#181818;stroke-width:0.6;"/><text fill="#000000" font-family="sans-serif" font-size="7.8" lengthAdjust="spacing" textLength="4.2" x="482.4896" y="282.2055">1</text><text fill="#000000" font-family="sans-serif" font-size="7.8" lengthAdjust="spacing" textLength="12" x="489.9975" y="298.4961">0..*</text></g><!--link Usuario to Espacio--><g id="link_Usuario_Espacio"><path codeLine="97" d="M489.648,202.4227 C527.91,231.0967 574.308,268.1167 612.3,305.1727 C615.984,308.7667 619.674,312.5947 623.298,316.5307 " fill="none" id="Usuario-Espacio" style="stroke:#181818;stroke-width:0.6;"/><text fill="#000000" font-family="sans-serif" font-size="7.8" lengthAdjust="spacing" textLength="4.2" x="494.3309" y="203.6193">1</text><text fill="#000000" font-family="sans-serif" font-size="7.8" lengthAdjust="spacing" textLength="12" x="607.2897" y="309.8982">0..*</text></g><!--link Usuario to Pago--><g id="link_Usuario_Pago"><path codeLine="98" d="M489.624,176.5507 C554.802,202.8547 649.548,247.1347 719.1,305.1727 C726.864,311.6527 734.154,319.5607 740.616,327.5887 " fill="none" id="Usuario-Pago" style="stroke:#181818;stroke-width:0.6;"/><text fill="#000000" font-family="sans-serif" font-size="7.8" lengthAdjust="spacing" textLength="4.2" x="494.3055" y="176.1707">1</text><text fill="#000000" font-family="sans-serif" font-size="7.8" lengthAdjust="spacing" textLength="12" x="725.1423" y="320.9146">0..*</text></g><!--link Perfil to Funcionalidad--><g id="link_Perfil_Funcionalidad"><path codeLine="99" d="M273.738,418.0207 C278.196,435.0187 283.182,454.0507 287.508,470.5507 " fill="none" id="Perfil-Funcionalidad" style="stroke:#181818;stroke-width:0.6;"/><text fill="#000000" font-family="sans-serif" font-size="7.8" lengthAdjust="spacing" textLength="4.2" x="270.4264" y="431.0196">1</text><text fill="#000000" font-family="sans-serif" font-size="7.8" lengthAdjust="spacing" textLength="12" x="273.8354" y="464.0853">0..*</text></g><!--SRC=[dLJRRjD047ttLwpo14IfuBL2IA6XW5ILAAOVC5bFp5Jh7MjtNI6XVXJY4_fZpFgwgPAIy19dvipbpCon0mM3QaLGEgX05QYk37ZqgWO72etAoGViaC_e0ptziV7_Ch_RP5f2lRhp3JXYzIjRAClLrg6_L7bmP4lnG8t6KC6fBr3DAzPDXJPmuhVYSGUH7UeVS0kQAkgG5GGKVy4LQJAKnWOqk6CREzu8-VSTy44GcODC4gdP1YVJFls6P-pwcIxLzyc82TArP4UGiuxerPuT-T2ET6C25Ckce40FKlWZiq6mWbPWyHvkq9ODtECAyzZPfn6-sMePoHDROJGPsLmvB6KQ1-xLQx4gRblr5XfPZEqDmoNP_I3P5lkruvhO2_AOeQmwdKsErurmozrpsVoKjO9R5bAuxIl3i6HsDzyVF3bziiS2lNPKwswMpZla9wETdxn6joDpUfuStij59etCbVoAJF-row7XTMDZGH0TGt5wtxa2KS9fBLgvn8MsvLkvVs47ez03kfYIghSPD3hfasjqy8p3g9jl0zXoAD6AwJPOimkOCj5owVC6xGbFP4LOOvdk7HhDavSVusAhBJcFhQt1QZJWljgHGi9xhyivHpfF2vzy3KSbtsmbzR_AnpjvT0-zCOowwPn9_pMKF6baN7d5xMVnsZ24GzfuWSTZDdm4PkzcQh5GixSN5szc_Mjs1Dnx9Ox4Z9e-Xe-QE8ptgpv6JnQHzP-2bxWD8HqsHVLL_m80]--></g></svg>